<?xml version="1.0" encoding="UTF-8" standalone="no"?>
<!DOCTYPE svg PUBLIC "-//W3C//DTD SVG 1.1//EN"
 "http://www.w3.org/Graphics/SVG/1.1/DTD/svg11.dtd">
<!-- Generated by graphviz version 13.1.0 (20250701.0955)
 -->
<!-- Title: wm8978 driver function Pages: 1 -->
<svg width="294pt" height="328pt"
 viewBox="0.00 0.00 294.00 328.00" xmlns="http://www.w3.org/2000/svg" xmlns:xlink="http://www.w3.org/1999/xlink">
<g id="graph0" class="graph" transform="scale(1 1) rotate(0) translate(4 324)">
<title>wm8978 driver function</title>
<!-- Node8 -->
<g id="Node000008" class="node">
<title>Node8</title>
<g id="a_Node000008"><a xlink:href="group__wav__simple__player.html" target="_top" xlink:title="wav simple player modules">
<polygon fill="white" stroke="#666666" points="285.5,-320 153.25,-320 153.25,-300 285.5,-300 285.5,-320"/>
<text xml:space="preserve" text-anchor="middle" x="219.38" y="-306.5" font-family="Helvetica,sans-Serif" font-size="10.00">wav simple player function</text>
</a>
</g>
</g>
<!-- Node3 -->
<g id="Node000003" class="node">
<title>Node3</title>
<g id="a_Node000003"><a xlink:href="group__wm8978__base__driver.html" target="_top" xlink:title="wm8978 base driver modules">
<polygon fill="white" stroke="#666666" points="271.25,-282 167.5,-282 167.5,-250 271.25,-250 271.25,-282"/>
<text xml:space="preserve" text-anchor="start" x="175.5" y="-268.5" font-family="Helvetica,sans-Serif" font-size="10.00">wm8978 base driver</text>
<text xml:space="preserve" text-anchor="middle" x="219.38" y="-256.5" font-family="Helvetica,sans-Serif" font-size="10.00"> function</text>
</a>
</g>
</g>
<!-- Node1 -->
<g id="Node000001" class="node">
<title>Node1</title>
<g id="a_Node000001"><a xlink:title="wm8978 driver modules">
<polygon fill="#999999" stroke="#666666" points="117.25,-176 0,-176 0,-156 117.25,-156 117.25,-176"/>
<text xml:space="preserve" text-anchor="middle" x="58.62" y="-162.5" font-family="Helvetica,sans-Serif" font-size="10.00">wm8978 driver function</text>
</a>
</g>
</g>
<!-- Node1&#45;&gt;Node8 -->
<g id="edge7" class="edge">
<title>Node1&#45;&gt;Node8</title>
<path fill="none" stroke="black" d="M69.47,-186.3C83.97,-214.08 113.68,-263.59 153.25,-291 158.19,-294.42 163.74,-297.23 169.47,-299.54"/>
<polygon fill="black" stroke="black" points="72.67,-184.88 65.04,-177.53 66.42,-188.03 72.67,-184.88"/>
</g>
<!-- Node1&#45;&gt;Node3 -->
<g id="edge2" class="edge">
<title>Node1&#45;&gt;Node3</title>
<path fill="none" stroke="black" d="M78.28,-183.86C96.32,-200.39 125,-224.79 153.25,-241 158.71,-244.13 164.64,-247.03 170.63,-249.65"/>
<polygon fill="black" stroke="black" points="81.14,-181.74 71.44,-177.48 76.37,-186.86 81.14,-181.74"/>
</g>
<!-- Node6 -->
<g id="Node000006" class="node">
<title>Node6</title>
<g id="a_Node000006"><a xlink:href="group__wm8978__example__driver.html" target="_top" xlink:title="wm8978 example driver modules">
<polygon fill="white" stroke="#666666" points="279.12,-232 159.62,-232 159.62,-200 279.12,-200 279.12,-232"/>
<text xml:space="preserve" text-anchor="start" x="167.62" y="-218.5" font-family="Helvetica,sans-Serif" font-size="10.00">wm8978 example driver</text>
<text xml:space="preserve" text-anchor="middle" x="219.38" y="-206.5" font-family="Helvetica,sans-Serif" font-size="10.00"> function</text>
</a>
</g>
</g>
<!-- Node1&#45;&gt;Node6 -->
<g id="edge5" class="edge">
<title>Node1&#45;&gt;Node6</title>
<path fill="none" stroke="black" d="M103.83,-179.92C123.14,-186 145.93,-193.18 166.08,-199.53"/>
<polygon fill="black" stroke="black" points="104.94,-176.6 94.35,-176.94 102.83,-183.28 104.94,-176.6"/>
</g>
<!-- Node4 -->
<g id="Node000004" class="node">
<title>Node4</title>
<g id="a_Node000004"><a xlink:href="group__wm8978__extend__driver.html" target="_top" xlink:title="wm8978 extend driver modules">
<polygon fill="white" stroke="#666666" points="275.38,-182 163.38,-182 163.38,-150 275.38,-150 275.38,-182"/>
<text xml:space="preserve" text-anchor="start" x="171.38" y="-168.5" font-family="Helvetica,sans-Serif" font-size="10.00">wm8978 extend driver</text>
<text xml:space="preserve" text-anchor="middle" x="219.38" y="-156.5" font-family="Helvetica,sans-Serif" font-size="10.00"> function</text>
</a>
</g>
</g>
<!-- Node1&#45;&gt;Node4 -->
<g id="edge3" class="edge">
<title>Node1&#45;&gt;Node4</title>
<path fill="none" stroke="black" d="M128.73,-166C140.2,-166 151.96,-166 163.04,-166"/>
<polygon fill="black" stroke="black" points="128.9,-162.5 118.9,-166 128.9,-169.5 128.9,-162.5"/>
</g>
<!-- Node5 -->
<g id="Node000005" class="node">
<title>Node5</title>
<g id="a_Node000005"><a xlink:href="group__wm8978__interface__driver.html" target="_top" xlink:title="wm8978 interface driver modules">
<polygon fill="white" stroke="#666666" points="279.5,-132 159.25,-132 159.25,-100 279.5,-100 279.5,-132"/>
<text xml:space="preserve" text-anchor="start" x="167.25" y="-118.5" font-family="Helvetica,sans-Serif" font-size="10.00">wm8978 interface driver</text>
<text xml:space="preserve" text-anchor="middle" x="219.38" y="-106.5" font-family="Helvetica,sans-Serif" font-size="10.00"> function</text>
</a>
</g>
</g>
<!-- Node1&#45;&gt;Node5 -->
<g id="edge4" class="edge">
<title>Node1&#45;&gt;Node5</title>
<path fill="none" stroke="black" d="M103.83,-152.08C123.14,-146 145.93,-138.82 166.08,-132.47"/>
<polygon fill="black" stroke="black" points="102.83,-148.72 94.35,-155.06 104.94,-155.4 102.83,-148.72"/>
</g>
<!-- Node2 -->
<g id="Node000002" class="node">
<title>Node2</title>
<g id="a_Node000002"><a xlink:href="group__wm8978__link__driver.html" target="_top" xlink:title="wm8978 link driver modules">
<polygon fill="white" stroke="#666666" points="268.25,-82 170.5,-82 170.5,-50 268.25,-50 268.25,-82"/>
<text xml:space="preserve" text-anchor="start" x="178.5" y="-68.5" font-family="Helvetica,sans-Serif" font-size="10.00">wm8978 link driver</text>
<text xml:space="preserve" text-anchor="middle" x="219.38" y="-56.5" font-family="Helvetica,sans-Serif" font-size="10.00"> function</text>
</a>
</g>
</g>
<!-- Node1&#45;&gt;Node2 -->
<g id="edge1" class="edge">
<title>Node1&#45;&gt;Node2</title>
<path fill="none" stroke="black" d="M78.28,-148.14C96.32,-131.61 125,-107.21 153.25,-91 158.71,-87.87 164.64,-84.97 170.63,-82.35"/>
<polygon fill="black" stroke="black" points="76.37,-145.14 71.44,-154.52 81.14,-150.26 76.37,-145.14"/>
</g>
<!-- Node7 -->
<g id="Node000007" class="node">
<title>Node7</title>
<g id="a_Node000007"><a xlink:href="group__wm8978__test__driver.html" target="_top" xlink:title="wm8978 test driver modules">
<polygon fill="white" stroke="#666666" points="269,-32 169.75,-32 169.75,0 269,0 269,-32"/>
<text xml:space="preserve" text-anchor="start" x="177.75" y="-18.5" font-family="Helvetica,sans-Serif" font-size="10.00">wm8978 test driver</text>
<text xml:space="preserve" text-anchor="middle" x="219.38" y="-6.5" font-family="Helvetica,sans-Serif" font-size="10.00"> function</text>
</a>
</g>
</g>
<!-- Node1&#45;&gt;Node7 -->
<g id="edge6" class="edge">
<title>Node1&#45;&gt;Node7</title>
<path fill="none" stroke="black" d="M70.02,-145.75C84.98,-118.43 115.04,-69.88 153.25,-41 158.18,-37.28 163.73,-34.04 169.45,-31.25"/>
<polygon fill="black" stroke="black" points="67.03,-143.91 65.42,-154.38 73.21,-147.2 67.03,-143.91"/>
</g>
</g>
</svg>
