<?xml version="1.0" encoding="UTF-8" standalone="no"?>
<!DOCTYPE svg PUBLIC "-//W3C//DTD SVG 1.1//EN"
 "http://www.w3.org/Graphics/SVG/1.1/DTD/svg11.dtd">
<!-- Generated by graphviz version 13.1.0 (20250701.0955)
 -->
<!-- Title: wm8978_basic_set_dac_mute Pages: 1 -->
<svg width="309pt" height="90pt"
 viewBox="0.00 0.00 309.00 90.00" xmlns="http://www.w3.org/2000/svg" xmlns:xlink="http://www.w3.org/1999/xlink">
<g id="graph0" class="graph" transform="scale(1 1) rotate(0) translate(4 86)">
<title>wm8978_basic_set_dac_mute</title>
<!-- Node1 -->
<g id="Node000001" class="node">
<title>Node1</title>
<g id="a_Node000001"><a xlink:title="basic example set dac mute">
<polygon fill="#999999" stroke="#666666" points="148,-51 0,-51 0,-31 148,-31 148,-51"/>
<text xml:space="preserve" text-anchor="middle" x="74" y="-37.5" font-family="Helvetica,sans-Serif" font-size="10.00">wm8978_basic_set_dac_mute</text>
</a>
</g>
</g>
<!-- Node2 -->
<g id="Node000002" class="node">
<title>Node2</title>
<g id="a_Node000002"><a xlink:href="group__wm8978__base__driver.html#ga33497dba65f1a375e2c9a66e3aa942df" target="_top" xlink:title="set dac left volume">
<polygon fill="white" stroke="#666666" points="297.88,-82 186.62,-82 186.62,-50 297.88,-50 297.88,-82"/>
<text xml:space="preserve" text-anchor="start" x="194.62" y="-68.5" font-family="Helvetica,sans-Serif" font-size="10.00">wm8978_set_dac_left</text>
<text xml:space="preserve" text-anchor="middle" x="242.25" y="-56.5" font-family="Helvetica,sans-Serif" font-size="10.00">_volume</text>
</a>
</g>
</g>
<!-- Node1&#45;&gt;Node2 -->
<g id="edge1_Node000001_Node000002" class="edge">
<title>Node1&#45;&gt;Node2</title>
<g id="a_edge1_Node000001_Node000002"><a xlink:title=" ">
<path fill="none" stroke="#63b8ff" d="M144.54,-51.46C154.63,-52.97 164.99,-54.53 175,-56.04"/>
<polygon fill="#63b8ff" stroke="#63b8ff" points="174.23,-59.46 184.64,-57.49 175.27,-52.54 174.23,-59.46"/>
</a>
</g>
</g>
<!-- Node3 -->
<g id="Node000003" class="node">
<title>Node3</title>
<g id="a_Node000003"><a xlink:href="group__wm8978__base__driver.html#gae4bd49c7f4a9209feb3d932af6bd34cb" target="_top" xlink:title="set dac right volume">
<polygon fill="white" stroke="#666666" points="300.5,-32 184,-32 184,0 300.5,0 300.5,-32"/>
<text xml:space="preserve" text-anchor="start" x="192" y="-18.5" font-family="Helvetica,sans-Serif" font-size="10.00">wm8978_set_dac_right</text>
<text xml:space="preserve" text-anchor="middle" x="242.25" y="-6.5" font-family="Helvetica,sans-Serif" font-size="10.00">_volume</text>
</a>
</g>
</g>
<!-- Node1&#45;&gt;Node3 -->
<g id="edge2_Node000001_Node000003" class="edge">
<title>Node1&#45;&gt;Node3</title>
<g id="a_edge2_Node000001_Node000003"><a xlink:title=" ">
<path fill="none" stroke="#63b8ff" d="M144.54,-30.54C153.78,-29.15 163.24,-27.73 172.47,-26.34"/>
<polygon fill="#63b8ff" stroke="#63b8ff" points="172.7,-29.85 182.07,-24.9 171.66,-22.93 172.7,-29.85"/>
</a>
</g>
</g>
</g>
</svg>
