<?xml version="1.0" encoding="UTF-8" standalone="no"?>
<!DOCTYPE svg PUBLIC "-//W3C//DTD SVG 1.1//EN"
 "http://www.w3.org/Graphics/SVG/1.1/DTD/svg11.dtd">
<!-- Generated by graphviz version 13.1.0 (20250701.0955)
 -->
<!-- Title: wm8978_basic_config Pages: 1 -->
<svg width="307pt" height="142pt"
 viewBox="0.00 0.00 307.00 142.00" xmlns="http://www.w3.org/2000/svg" xmlns:xlink="http://www.w3.org/1999/xlink">
<g id="graph0" class="graph" transform="scale(1 1) rotate(0) translate(4 138)">
<title>wm8978_basic_config</title>
<!-- Node1 -->
<g id="Node000001" class="node">
<title>Node1</title>
<g id="a_Node000001"><a xlink:title="basic example config">
<polygon fill="#999999" stroke="#666666" points="112.75,-77 0,-77 0,-57 112.75,-57 112.75,-77"/>
<text xml:space="preserve" text-anchor="middle" x="56.38" y="-63.5" font-family="Helvetica,sans-Serif" font-size="10.00">wm8978_basic_config</text>
</a>
</g>
</g>
<!-- Node2 -->
<g id="Node000002" class="node">
<title>Node2</title>
<g id="a_Node000002"><a xlink:href="group__wm8978__base__driver.html#ga37aa468bf1ffceaa0ab90bc36437ccae" target="_top" xlink:title="set adc companding">
<polygon fill="white" stroke="#666666" points="299,-134 148.75,-134 148.75,-114 299,-114 299,-134"/>
<text xml:space="preserve" text-anchor="middle" x="223.88" y="-120.5" font-family="Helvetica,sans-Serif" font-size="10.00">wm8978_set_adc_companding</text>
</a>
</g>
</g>
<!-- Node1&#45;&gt;Node2 -->
<g id="edge1_Node000001_Node000002" class="edge">
<title>Node1&#45;&gt;Node2</title>
<g id="a_edge1_Node000001_Node000002"><a xlink:title=" ">
<path fill="none" stroke="#63b8ff" d="M79.94,-77.45C98.22,-85.65 124.8,-97 148.75,-105 154.58,-106.95 160.72,-108.81 166.87,-110.56"/>
<polygon fill="#63b8ff" stroke="#63b8ff" points="165.86,-113.91 176.43,-113.17 167.7,-107.16 165.86,-113.91"/>
</a>
</g>
</g>
<!-- Node3 -->
<g id="Node000003" class="node">
<title>Node3</title>
<g id="a_Node000003"><a xlink:href="group__wm8978__base__driver.html#ga1b1d6cab8c5b33af80824ef25b960702" target="_top" xlink:title="set channel">
<polygon fill="white" stroke="#666666" points="279.12,-96 168.62,-96 168.62,-76 279.12,-76 279.12,-96"/>
<text xml:space="preserve" text-anchor="middle" x="223.88" y="-82.5" font-family="Helvetica,sans-Serif" font-size="10.00">wm8978_set_channel</text>
</a>
</g>
</g>
<!-- Node1&#45;&gt;Node3 -->
<g id="edge2_Node000001_Node000003" class="edge">
<title>Node1&#45;&gt;Node3</title>
<g id="a_edge2_Node000001_Node000003"><a xlink:title=" ">
<path fill="none" stroke="#63b8ff" d="M112.94,-73.38C127.16,-75.01 142.58,-76.78 157.26,-78.47"/>
<polygon fill="#63b8ff" stroke="#63b8ff" points="156.46,-81.9 166.79,-79.56 157.26,-74.94 156.46,-81.9"/>
</a>
</g>
</g>
<!-- Node4 -->
<g id="Node000004" class="node">
<title>Node4</title>
<g id="a_Node000004"><a xlink:href="group__wm8978__base__driver.html#ga8bb4182603e3cc2aec2df6a205bcc5cf" target="_top" xlink:title="set dac companding">
<polygon fill="white" stroke="#666666" points="299,-58 148.75,-58 148.75,-38 299,-38 299,-58"/>
<text xml:space="preserve" text-anchor="middle" x="223.88" y="-44.5" font-family="Helvetica,sans-Serif" font-size="10.00">wm8978_set_dac_companding</text>
</a>
</g>
</g>
<!-- Node1&#45;&gt;Node4 -->
<g id="edge3_Node000001_Node000004" class="edge">
<title>Node1&#45;&gt;Node4</title>
<g id="a_edge3_Node000001_Node000004"><a xlink:title=" ">
<path fill="none" stroke="#63b8ff" d="M112.94,-60.62C120.76,-59.72 128.93,-58.79 137.15,-57.84"/>
<polygon fill="#63b8ff" stroke="#63b8ff" points="137.3,-61.35 146.84,-56.73 136.5,-54.39 137.3,-61.35"/>
</a>
</g>
</g>
<!-- Node5 -->
<g id="Node000005" class="node">
<title>Node5</title>
<g id="a_Node000005"><a xlink:href="group__wm8978__base__driver.html#ga1f2276be88c3ef0dde2ec0ec464533d6" target="_top" xlink:title="set word length">
<polygon fill="white" stroke="#666666" points="288.5,-20 159.25,-20 159.25,0 288.5,0 288.5,-20"/>
<text xml:space="preserve" text-anchor="middle" x="223.88" y="-6.5" font-family="Helvetica,sans-Serif" font-size="10.00">wm8978_set_word_length</text>
</a>
</g>
</g>
<!-- Node1&#45;&gt;Node5 -->
<g id="edge4_Node000001_Node000005" class="edge">
<title>Node1&#45;&gt;Node5</title>
<g id="a_edge4_Node000001_Node000005"><a xlink:title=" ">
<path fill="none" stroke="#63b8ff" d="M79.94,-56.55C98.22,-48.35 124.8,-37 148.75,-29 154.58,-27.05 160.72,-25.19 166.87,-23.44"/>
<polygon fill="#63b8ff" stroke="#63b8ff" points="167.7,-26.84 176.43,-20.83 165.86,-20.09 167.7,-26.84"/>
</a>
</g>
</g>
</g>
</svg>
