<?xml version="1.0" encoding="UTF-8" standalone="no"?>
<!DOCTYPE svg PUBLIC "-//W3C//DTD SVG 1.1//EN"
 "http://www.w3.org/Graphics/SVG/1.1/DTD/svg11.dtd">
<!-- Generated by graphviz version 13.1.0 (20250701.0955)
 -->
<!-- Title: wm8978_basic_set_dac_volume Pages: 1 -->
<svg width="292pt" height="140pt"
 viewBox="0.00 0.00 292.00 140.00" xmlns="http://www.w3.org/2000/svg" xmlns:xlink="http://www.w3.org/1999/xlink">
<g id="graph0" class="graph" transform="scale(1 1) rotate(0) translate(4 136)">
<title>wm8978_basic_set_dac_volume</title>
<!-- Node1 -->
<g id="Node000001" class="node">
<title>Node1</title>
<g id="a_Node000001"><a xlink:title="basic example set dac volume">
<polygon fill="#999999" stroke="#666666" points="121,-82 0,-82 0,-50 121,-50 121,-82"/>
<text xml:space="preserve" text-anchor="start" x="8" y="-68.5" font-family="Helvetica,sans-Serif" font-size="10.00">wm8978_basic_set_dac</text>
<text xml:space="preserve" text-anchor="middle" x="60.5" y="-56.5" font-family="Helvetica,sans-Serif" font-size="10.00">_volume</text>
</a>
</g>
</g>
<!-- Node2 -->
<g id="Node000002" class="node">
<title>Node2</title>
<g id="a_Node000002"><a xlink:href="group__wm8978__base__driver.html#ga33497dba65f1a375e2c9a66e3aa942df" target="_top" xlink:title="set dac left volume">
<polygon fill="white" stroke="#666666" points="276.12,-132 164.88,-132 164.88,-100 276.12,-100 276.12,-132"/>
<text xml:space="preserve" text-anchor="start" x="172.88" y="-118.5" font-family="Helvetica,sans-Serif" font-size="10.00">wm8978_set_dac_left</text>
<text xml:space="preserve" text-anchor="middle" x="220.5" y="-106.5" font-family="Helvetica,sans-Serif" font-size="10.00">_volume</text>
</a>
</g>
</g>
<!-- Node1&#45;&gt;Node2 -->
<g id="edge1_Node000001_Node000002" class="edge">
<title>Node1&#45;&gt;Node2</title>
<g id="a_edge1_Node000001_Node000002"><a xlink:title=" ">
<path fill="none" stroke="#63b8ff" d="M113.24,-82.37C127.08,-86.75 142.19,-91.54 156.56,-96.08"/>
<polygon fill="#63b8ff" stroke="#63b8ff" points="155.35,-99.37 165.94,-99.05 157.46,-92.7 155.35,-99.37"/>
</a>
</g>
</g>
<!-- Node3 -->
<g id="Node000003" class="node">
<title>Node3</title>
<g id="a_Node000003"><a xlink:href="group__wm8978__base__driver.html#gae4bd49c7f4a9209feb3d932af6bd34cb" target="_top" xlink:title="set dac right volume">
<polygon fill="white" stroke="#666666" points="278.75,-82 162.25,-82 162.25,-50 278.75,-50 278.75,-82"/>
<text xml:space="preserve" text-anchor="start" x="170.25" y="-68.5" font-family="Helvetica,sans-Serif" font-size="10.00">wm8978_set_dac_right</text>
<text xml:space="preserve" text-anchor="middle" x="220.5" y="-56.5" font-family="Helvetica,sans-Serif" font-size="10.00">_volume</text>
</a>
</g>
</g>
<!-- Node1&#45;&gt;Node3 -->
<g id="edge2_Node000001_Node000003" class="edge">
<title>Node1&#45;&gt;Node3</title>
<g id="a_edge2_Node000001_Node000003"><a xlink:title=" ">
<path fill="none" stroke="#63b8ff" d="M121.23,-66C130.78,-66 140.73,-66 150.47,-66"/>
<polygon fill="#63b8ff" stroke="#63b8ff" points="150.26,-69.5 160.26,-66 150.26,-62.5 150.26,-69.5"/>
</a>
</g>
</g>
<!-- Node4 -->
<g id="Node000004" class="node">
<title>Node4</title>
<g id="a_Node000004"><a xlink:href="group__wm8978__base__driver.html#ga2bb1c8fbee66be9035615971651a77dd" target="_top" xlink:title="convert the volume data to the register raw data">
<polygon fill="white" stroke="#666666" points="284,-32 157,-32 157,0 284,0 284,-32"/>
<text xml:space="preserve" text-anchor="start" x="165" y="-18.5" font-family="Helvetica,sans-Serif" font-size="10.00">wm8978_volume_convert</text>
<text xml:space="preserve" text-anchor="middle" x="220.5" y="-6.5" font-family="Helvetica,sans-Serif" font-size="10.00">_to_register</text>
</a>
</g>
</g>
<!-- Node1&#45;&gt;Node4 -->
<g id="edge3_Node000001_Node000004" class="edge">
<title>Node1&#45;&gt;Node4</title>
<g id="a_edge3_Node000001_Node000004"><a xlink:title=" ">
<path fill="none" stroke="#63b8ff" d="M113.24,-49.63C127.08,-45.25 142.19,-40.46 156.56,-35.92"/>
<polygon fill="#63b8ff" stroke="#63b8ff" points="157.46,-39.3 165.94,-32.95 155.35,-32.63 157.46,-39.3"/>
</a>
</g>
</g>
</g>
</svg>
